<svg xmlns="http://www.w3.org/2000/svg" viewBox="0 0 1200 720" role="img" aria-labelledby="title desc">
  <title id="title">선박 공간 graph 추상화</title>
  <desc id="desc">선박 적재 구역을 node로, 차량 통행 가능성을 edge로 다시 그린 SVG 다이어그램</desc>
  <defs>
    <marker id="arrow" viewBox="0 0 10 10" refX="8" refY="5" markerWidth="7" markerHeight="7" orient="auto-start-reverse"><path d="M0 0L10 5L0 10z" fill="#3182f6"/></marker>
    <filter id="shadow" x="-20%" y="-20%" width="140%" height="140%"><feDropShadow dx="0" dy="14" stdDeviation="18" flood-color="#313e50" flood-opacity="0.12"/></filter>
  </defs>
  <style>
    .bg{fill:#f2f4f6}.panel{fill:#fff;stroke:#e5e8eb;stroke-width:2;filter:url(#shadow)}.deck{fill:#eef6ff;stroke:#1d4ed8;stroke-width:3}.zone{fill:#fff;stroke:#d6dee6;stroke-width:2}.path{stroke:#3182f6;stroke-width:4;fill:none;marker-end:url(#arrow)}.node{fill:#3182f6;stroke:#fff;stroke-width:5}.node2{fill:#1d4ed8;stroke:#fff;stroke-width:5}.label{font:800 22px Pretendard,'Noto Sans KR',sans-serif;fill:#171f2f}.small{font:700 16px Pretendard,'Noto Sans KR',sans-serif;fill:#6b7684}.title{font:900 38px Pretendard,'Noto Sans KR',sans-serif;fill:#171f2f}.caption{font:750 18px Pretendard,'Noto Sans KR',sans-serif;fill:#333d4b}.pill{fill:#eef6ff;stroke:#d8e8ff;stroke-width:2}.pilltext{font:800 15px Pretendard,'Noto Sans KR',sans-serif;fill:#1d4ed8}
  </style>
  <rect class="bg" width="1200" height="720" rx="0"/>
  <rect class="panel" x="56" y="54" width="1088" height="612" rx="28"/>
  <text class="title" x="96" y="116">선박 공간을 Graph로 추상화</text>
  <text class="caption" x="96" y="154">적재 가능 구역은 node, 차량 통행 가능성은 edge로 모델링해 선박별 구조 차이를 데이터로 다룹니다.</text>

  <path class="deck" d="M112 258 L210 198 L968 198 L1088 282 L1030 534 L204 534 L112 468 Z"/>
  <path class="zone" d="M218 236 h238 v118 h-238z"/>
  <path class="zone" d="M486 236 h246 v118 h-246z"/>
  <path class="zone" d="M764 236 h222 l42 58 v60 h-264z"/>
  <path class="zone" d="M218 384 h226 v112 h-226z"/>
  <path class="zone" d="M476 384 h250 v112 h-250z"/>
  <path class="zone" d="M758 384 h264 v112 h-264z"/>

  <path class="path" d="M334 296 C440 268 535 274 612 300"/>
  <path class="path" d="M612 300 C736 296 826 302 910 318"/>
  <path class="path" d="M334 296 C320 368 332 421 342 444"/>
  <path class="path" d="M612 300 C602 356 604 408 606 444"/>
  <path class="path" d="M910 318 C890 365 890 410 894 444"/>
  <path class="path" d="M342 444 C448 476 514 472 606 444"/>
  <path class="path" d="M606 444 C704 474 796 474 894 444"/>

  <circle class="node2" cx="334" cy="296" r="24"/><text class="label" x="319" y="304">A</text>
  <circle class="node" cx="612" cy="300" r="24"/><text class="label" x="597" y="308">B</text>
  <circle class="node" cx="910" cy="318" r="24"/><text class="label" x="895" y="326">C</text>
  <circle class="node" cx="342" cy="444" r="24"/><text class="label" x="327" y="452">D</text>
  <circle class="node" cx="606" cy="444" r="24"/><text class="label" x="592" y="452">E</text>
  <circle class="node2" cx="894" cy="444" r="24"/><text class="label" x="880" y="452">F</text>

  <rect class="pill" x="148" y="574" width="220" height="44" rx="22"/><text class="pilltext" x="181" y="602">Node = 적재 가능 공간</text>
  <rect class="pill" x="396" y="574" width="250" height="44" rx="22"/><text class="pilltext" x="427" y="602">Edge = 차량 통행 가능성</text>
  <rect class="pill" x="674" y="574" width="324" height="44" rx="22"/><text class="pilltext" x="704" y="602">Graph = 선박별 deck 구조 표준화</text>
  <text class="small" x="850" y="154">Redrawn SVG · assets/redrawn-figures</text>
</svg>
