<?xml version="1.0" encoding="utf-8" ?>
<svg xmlns="http://www.w3.org/2000/svg" xmlns:ev="http://www.w3.org/2001/xml-events" xmlns:xlink="http://www.w3.org/1999/xlink" baseProfile="full" height="1152" version="1.1" viewBox="0 0 2048 1152" width="2048">
  <defs/>
  <rect fill="#F5F8FD" height="1152" width="2048" x="0" y="0"/>
  <rect fill="#FFFFFF" height="1064" rx="30" ry="30" stroke="#C8D9F2" stroke-width="2" width="1958" x="45" y="45"/>
  <rect fill="#134CA8" height="96" rx="12" ry="12" stroke="none" stroke-width="1" width="1880" x="84" y="76"/>
  <text dominant-baseline="middle" fill="#FFFFFF" font-family="NanumSquareRound, NanumSquare, Noto Sans CJK KR, Malgun Gothic, Arial, sans-serif" font-size="43" font-weight="900" text-anchor="middle" x="1024.0" y="116">사내 시스템 ↔ 모델 API 요청/응답 연동 구조</text>
  <text dominant-baseline="middle" fill="#DDEAFF" font-family="NanumSquareRound, NanumSquare, Noto Sans CJK KR, Malgun Gothic, Arial, sans-serif" font-size="22" font-weight="800" text-anchor="middle" x="1024.0" y="151">요청/응답 경로를 분리한 API 처리 흐름</text>
  <rect fill="#FFFFFF" height="720" rx="18" ry="18" stroke="#D9E5F6" stroke-width="2" width="1896" x="76" y="210"/>
  <rect fill="#FFFFFF" height="40" rx="20.0" ry="20.0" stroke="#C8D9F2" stroke-width="2" width="282" x="101.5" y="233"/>
  <text dominant-baseline="middle" fill="#0F1B2E" font-family="NanumSquareRound, NanumSquare, Noto Sans CJK KR, Malgun Gothic, Arial, sans-serif" font-size="19" font-weight="700" text-anchor="middle" x="242.5" y="254.0">Legacy System</text>
  <rect fill="#FFFFFF" height="40" rx="20.0" ry="20.0" stroke="#C8D9F2" stroke-width="2" width="320" x="480.0" y="233"/>
  <text dominant-baseline="middle" fill="#0F1B2E" font-family="NanumSquareRound, NanumSquare, Noto Sans CJK KR, Malgun Gothic, Arial, sans-serif" font-size="19" font-weight="700" text-anchor="middle" x="640.0" y="254.0">사내 API Adapter</text>
  <rect fill="#FFFFFF" height="40" rx="20.0" ry="20.0" stroke="#C8D9F2" stroke-width="2" width="320" x="960.0" y="233"/>
  <text dominant-baseline="middle" fill="#0F1B2E" font-family="NanumSquareRound, NanumSquare, Noto Sans CJK KR, Malgun Gothic, Arial, sans-serif" font-size="19" font-weight="700" text-anchor="middle" x="1120.0" y="254.0">Model API</text>
  <rect fill="#FFFFFF" height="40" rx="20.0" ry="20.0" stroke="#C8D9F2" stroke-width="2" width="310" x="1547.5" y="233"/>
  <text dominant-baseline="middle" fill="#0F1B2E" font-family="NanumSquareRound, NanumSquare, Noto Sans CJK KR, Malgun Gothic, Arial, sans-serif" font-size="19" font-weight="700" text-anchor="middle" x="1702.5" y="254.0">Model Runtime</text>
  <rect fill="#F6F9FF" height="270" rx="18" ry="18" stroke="#8FB9FF" stroke-width="2.2" width="1095" x="405" y="300"/>
  <rect fill="#FFFFFF" height="38" rx="17" ry="17" stroke="#8FB9FF" stroke-width="2.2" width="138" x="429" y="313"/>
  <text dominant-baseline="middle" fill="#8FB9FF" font-family="NanumSquareRound, NanumSquare, Noto Sans CJK KR, Malgun Gothic, Arial, sans-serif" font-size="18" font-weight="800" text-anchor="middle" x="498" y="333">요청 흐름</text>
  <rect fill="#F5FCF4" height="270" rx="18" ry="18" stroke="#9ED7A5" stroke-width="2.2" width="1095" x="405" y="630"/>
  <rect fill="#FFFFFF" height="38" rx="17" ry="17" stroke="#9ED7A5" stroke-width="2.2" width="138" x="429" y="643"/>
  <text dominant-baseline="middle" fill="#9ED7A5" font-family="NanumSquareRound, NanumSquare, Noto Sans CJK KR, Malgun Gothic, Arial, sans-serif" font-size="18" font-weight="800" text-anchor="middle" x="498" y="663">응답 흐름</text>
  <rect fill="#EAF0FA" height="458" opacity="0.48" rx="16" ry="16" stroke="none" stroke-width="0" width="285" x="105" y="399"/>
  <rect fill="#FFFFFF" height="458" rx="16" ry="16" stroke="#09204B" stroke-width="3" width="285" x="100" y="392"/>
  <line stroke="#09204B" stroke-linecap="round" stroke-width="6" x1="118" x2="367" y1="394" y2="394"/>
  <rect fill="#F7FAFF" height="104" rx="10" ry="10" stroke="#09204B" stroke-width="3" width="104" x="190.5" y="454"/>
  <rect fill="#245FD6" height="15" width="15" x="210.5" y="477"/>
  <rect fill="#245FD6" height="15" width="15" x="237.5" y="477"/>
  <rect fill="#245FD6" height="15" width="15" x="264.5" y="477"/>
  <rect fill="#245FD6" height="15" width="15" x="210.5" y="501"/>
  <rect fill="#245FD6" height="15" width="15" x="237.5" y="501"/>
  <rect fill="#245FD6" height="15" width="15" x="264.5" y="501"/>
  <rect fill="#245FD6" height="15" width="15" x="210.5" y="525"/>
  <rect fill="#245FD6" height="15" width="15" x="237.5" y="525"/>
  <rect fill="#245FD6" height="15" width="15" x="264.5" y="525"/>
  <rect fill="#134CA8" height="28" width="28" x="228.5" y="530"/>
  <text dominant-baseline="middle" fill="#0F1B2E" font-family="NanumSquareRound, NanumSquare, Noto Sans CJK KR, Malgun Gothic, Arial, sans-serif" font-size="28" font-weight="900" text-anchor="middle" x="242.5" y="597">기존 사내 시스템</text>
  <text dominant-baseline="middle" fill="#0F1B2E" font-family="NanumSquareRound, NanumSquare, Noto Sans CJK KR, Malgun Gothic, Arial, sans-serif" font-size="29" font-weight="900" text-anchor="middle" x="242.5" y="639">Legacy System</text>
  <text dominant-baseline="middle" fill="#536985" font-family="NanumSquareRound, NanumSquare, Noto Sans CJK KR, Malgun Gothic, Arial, sans-serif" font-size="20" font-weight="800" text-anchor="middle" x="242.5" y="724">요청 생성 · 응답 반영</text>
  <rect fill="#EAF0FA" height="544" opacity="0.5" rx="18" ry="18" stroke="none" stroke-width="0" width="335" x="1540" y="331"/>
  <rect fill="#FFFFFF" height="544" rx="18" ry="18" stroke="#09204B" stroke-width="3" width="335" x="1535" y="324"/>
  <line stroke="#245FD6" stroke-linecap="round" stroke-width="7" x1="1553" x2="1852" y1="326" y2="326"/>
  <text dominant-baseline="middle" fill="#0F1B2E" font-family="NanumSquareRound, NanumSquare, Noto Sans CJK KR, Malgun Gothic, Arial, sans-serif" font-size="41" font-weight="900" text-anchor="middle" x="1702.5" y="382">Model Server</text>
  <text dominant-baseline="middle" fill="#536985" font-family="NanumSquareRound, NanumSquare, Noto Sans CJK KR, Malgun Gothic, Arial, sans-serif" font-size="23" font-weight="700" text-anchor="middle" x="1702.5" y="423">Inference Workers</text>
  <rect fill="#F7FAFF" height="78" rx="12" ry="12" stroke="#C8D9F2" stroke-width="2" width="280" x="1562.5" y="519"/>
  <rect fill="none" height="9" rx="2" ry="2" stroke="#09204B" stroke-width="3" width="34" x="1587.5" y="539"/>
  <circle cx="1595.5" cy="543.5" fill="#09204B" r="2"/>
  <circle cx="1605.5" cy="543.5" fill="#09204B" r="2"/>
  <circle cx="1615.5" cy="543.5" fill="#09204B" r="2"/>
  <rect fill="none" height="9" rx="2" ry="2" stroke="#09204B" stroke-width="3" width="34" x="1587.5" y="554"/>
  <circle cx="1595.5" cy="558.5" fill="#09204B" r="2"/>
  <circle cx="1605.5" cy="558.5" fill="#09204B" r="2"/>
  <circle cx="1615.5" cy="558.5" fill="#09204B" r="2"/>
  <rect fill="none" height="9" rx="2" ry="2" stroke="#09204B" stroke-width="3" width="34" x="1587.5" y="569"/>
  <circle cx="1595.5" cy="573.5" fill="#09204B" r="2"/>
  <circle cx="1605.5" cy="573.5" fill="#09204B" r="2"/>
  <circle cx="1615.5" cy="573.5" fill="#09204B" r="2"/>
  <line stroke="#09204B" stroke-linecap="round" stroke-width="3" x1="1604.5" x2="1604.5" y1="584" y2="594"/>
  <line stroke="#09204B" stroke-linecap="round" stroke-width="3" x1="1593.5" x2="1615.5" y1="594" y2="594"/>
  <text dominant-baseline="middle" fill="#0F1B2E" font-family="NanumSquareRound, NanumSquare, Noto Sans CJK KR, Malgun Gothic, Arial, sans-serif" font-size="21" font-weight="900" text-anchor="start" x="1653.5" y="547">Worker #1</text>
  <text dominant-baseline="middle" fill="#536985" font-family="NanumSquareRound, NanumSquare, Noto Sans CJK KR, Malgun Gothic, Arial, sans-serif" font-size="17" font-weight="500" text-anchor="start" x="1653.5" y="577">model inference</text>
  <rect fill="#F7FAFF" height="78" rx="12" ry="12" stroke="#C8D9F2" stroke-width="2" width="280" x="1562.5" y="624"/>
  <rect fill="none" height="9" rx="2" ry="2" stroke="#09204B" stroke-width="3" width="34" x="1587.5" y="644"/>
  <circle cx="1595.5" cy="648.5" fill="#09204B" r="2"/>
  <circle cx="1605.5" cy="648.5" fill="#09204B" r="2"/>
  <circle cx="1615.5" cy="648.5" fill="#09204B" r="2"/>
  <rect fill="none" height="9" rx="2" ry="2" stroke="#09204B" stroke-width="3" width="34" x="1587.5" y="659"/>
  <circle cx="1595.5" cy="663.5" fill="#09204B" r="2"/>
  <circle cx="1605.5" cy="663.5" fill="#09204B" r="2"/>
  <circle cx="1615.5" cy="663.5" fill="#09204B" r="2"/>
  <rect fill="none" height="9" rx="2" ry="2" stroke="#09204B" stroke-width="3" width="34" x="1587.5" y="674"/>
  <circle cx="1595.5" cy="678.5" fill="#09204B" r="2"/>
  <circle cx="1605.5" cy="678.5" fill="#09204B" r="2"/>
  <circle cx="1615.5" cy="678.5" fill="#09204B" r="2"/>
  <line stroke="#09204B" stroke-linecap="round" stroke-width="3" x1="1604.5" x2="1604.5" y1="689" y2="699"/>
  <line stroke="#09204B" stroke-linecap="round" stroke-width="3" x1="1593.5" x2="1615.5" y1="699" y2="699"/>
  <text dominant-baseline="middle" fill="#0F1B2E" font-family="NanumSquareRound, NanumSquare, Noto Sans CJK KR, Malgun Gothic, Arial, sans-serif" font-size="21" font-weight="900" text-anchor="start" x="1653.5" y="652">Worker #2</text>
  <text dominant-baseline="middle" fill="#536985" font-family="NanumSquareRound, NanumSquare, Noto Sans CJK KR, Malgun Gothic, Arial, sans-serif" font-size="17" font-weight="500" text-anchor="start" x="1653.5" y="682">model inference</text>
  <rect fill="#F7FAFF" height="78" rx="12" ry="12" stroke="#C8D9F2" stroke-width="2" width="280" x="1562.5" y="729"/>
  <rect fill="none" height="9" rx="2" ry="2" stroke="#09204B" stroke-width="3" width="34" x="1587.5" y="749"/>
  <circle cx="1595.5" cy="753.5" fill="#09204B" r="2"/>
  <circle cx="1605.5" cy="753.5" fill="#09204B" r="2"/>
  <circle cx="1615.5" cy="753.5" fill="#09204B" r="2"/>
  <rect fill="none" height="9" rx="2" ry="2" stroke="#09204B" stroke-width="3" width="34" x="1587.5" y="764"/>
  <circle cx="1595.5" cy="768.5" fill="#09204B" r="2"/>
  <circle cx="1605.5" cy="768.5" fill="#09204B" r="2"/>
  <circle cx="1615.5" cy="768.5" fill="#09204B" r="2"/>
  <rect fill="none" height="9" rx="2" ry="2" stroke="#09204B" stroke-width="3" width="34" x="1587.5" y="779"/>
  <circle cx="1595.5" cy="783.5" fill="#09204B" r="2"/>
  <circle cx="1605.5" cy="783.5" fill="#09204B" r="2"/>
  <circle cx="1615.5" cy="783.5" fill="#09204B" r="2"/>
  <line stroke="#09204B" stroke-linecap="round" stroke-width="3" x1="1604.5" x2="1604.5" y1="794" y2="804"/>
  <line stroke="#09204B" stroke-linecap="round" stroke-width="3" x1="1593.5" x2="1615.5" y1="804" y2="804"/>
  <text dominant-baseline="middle" fill="#0F1B2E" font-family="NanumSquareRound, NanumSquare, Noto Sans CJK KR, Malgun Gothic, Arial, sans-serif" font-size="21" font-weight="900" text-anchor="start" x="1653.5" y="757">Worker #3</text>
  <text dominant-baseline="middle" fill="#536985" font-family="NanumSquareRound, NanumSquare, Noto Sans CJK KR, Malgun Gothic, Arial, sans-serif" font-size="17" font-weight="500" text-anchor="start" x="1653.5" y="787">model inference</text>
  <rect fill="#EAF0FA" height="140" opacity="0.5" rx="16" ry="16" stroke="none" stroke-width="0" width="380" x="454" y="391.0"/>
  <rect fill="#FFFFFF" height="140" rx="16" ry="16" stroke="#09204B" stroke-width="3" width="380" x="450" y="386.0"/>
  <line stroke="#245FD6" stroke-linecap="round" stroke-width="7" x1="468" x2="812" y1="388.0" y2="388.0"/>
  <rect fill="#F7FAFF" height="62" rx="9" ry="9" stroke="#245FD6" stroke-width="3" width="62" x="479" y="431.0"/>
  <circle cx="496" cy="448.0" fill="#245FD6" r="4.2"/>
  <line stroke="#245FD6" stroke-linecap="round" stroke-width="3.2" x1="508" x2="528" y1="448.0" y2="448.0"/>
  <circle cx="496" cy="462.0" fill="#245FD6" r="4.2"/>
  <line stroke="#245FD6" stroke-linecap="round" stroke-width="3.2" x1="508" x2="528" y1="462.0" y2="462.0"/>
  <circle cx="496" cy="476.0" fill="#245FD6" r="4.2"/>
  <line stroke="#245FD6" stroke-linecap="round" stroke-width="3.2" x1="508" x2="528" y1="476.0" y2="476.0"/>
  <text dominant-baseline="middle" fill="#0F1B2E" font-family="NanumSquareRound, NanumSquare, Noto Sans CJK KR, Malgun Gothic, Arial, sans-serif" font-size="24" font-weight="800" text-anchor="start" x="558" y="438.0">사내 시스템 요청 API</text>
  <text fill="#536985" font-family="NanumSquareRound, NanumSquare, Noto Sans CJK KR, Malgun Gothic, Arial, sans-serif" font-size="18" font-weight="700" text-anchor="start" x="558" y="472.0">
    <tspan dy="0" x="558">인증 · 유효성 검사</tspan>
    <tspan dy="27" x="558">요청 포맷 표준화</tspan>
  </text>
  <rect fill="#EAF0FA" height="140" opacity="0.5" rx="16" ry="16" stroke="none" stroke-width="0" width="380" x="934" y="391.0"/>
  <rect fill="#FFFFFF" height="140" rx="16" ry="16" stroke="#09204B" stroke-width="3" width="380" x="930" y="386.0"/>
  <line stroke="#245FD6" stroke-linecap="round" stroke-width="7" x1="948" x2="1292" y1="388.0" y2="388.0"/>
  <rect fill="#F7FAFF" height="62" rx="9" ry="9" stroke="#245FD6" stroke-width="3" width="62" x="959" y="431.0"/>
  <circle cx="976" cy="448.0" fill="#245FD6" r="4.2"/>
  <line stroke="#245FD6" stroke-linecap="round" stroke-width="3.2" x1="988" x2="1008" y1="448.0" y2="448.0"/>
  <circle cx="976" cy="462.0" fill="#245FD6" r="4.2"/>
  <line stroke="#245FD6" stroke-linecap="round" stroke-width="3.2" x1="988" x2="1008" y1="462.0" y2="462.0"/>
  <circle cx="976" cy="476.0" fill="#245FD6" r="4.2"/>
  <line stroke="#245FD6" stroke-linecap="round" stroke-width="3.2" x1="988" x2="1008" y1="476.0" y2="476.0"/>
  <text dominant-baseline="middle" fill="#0F1B2E" font-family="NanumSquareRound, NanumSquare, Noto Sans CJK KR, Malgun Gothic, Arial, sans-serif" font-size="24" font-weight="800" text-anchor="start" x="1038" y="438.0">모델 요청 API</text>
  <text fill="#536985" font-family="NanumSquareRound, NanumSquare, Noto Sans CJK KR, Malgun Gothic, Arial, sans-serif" font-size="18" font-weight="700" text-anchor="start" x="1038" y="472.0">
    <tspan dy="0" x="1038">모델 입력 변환</tspan>
    <tspan dy="27" x="1038">모델 호출 전달</tspan>
  </text>
  <rect fill="#EAF0FA" height="140" opacity="0.5" rx="16" ry="16" stroke="none" stroke-width="0" width="380" x="454" y="723.0"/>
  <rect fill="#FFFFFF" height="140" rx="16" ry="16" stroke="#09204B" stroke-width="3" width="380" x="450" y="718.0"/>
  <line stroke="#238A3A" stroke-linecap="round" stroke-width="7" x1="468" x2="812" y1="720.0" y2="720.0"/>
  <rect fill="#F7FAFF" height="62" rx="9" ry="9" stroke="#238A3A" stroke-width="3" width="62" x="479" y="763.0"/>
  <circle cx="496" cy="780.0" fill="#238A3A" r="4.2"/>
  <line stroke="#238A3A" stroke-linecap="round" stroke-width="3.2" x1="508" x2="528" y1="780.0" y2="780.0"/>
  <circle cx="496" cy="794.0" fill="#238A3A" r="4.2"/>
  <line stroke="#238A3A" stroke-linecap="round" stroke-width="3.2" x1="508" x2="528" y1="794.0" y2="794.0"/>
  <circle cx="496" cy="808.0" fill="#238A3A" r="4.2"/>
  <line stroke="#238A3A" stroke-linecap="round" stroke-width="3.2" x1="508" x2="528" y1="808.0" y2="808.0"/>
  <text dominant-baseline="middle" fill="#0F1B2E" font-family="NanumSquareRound, NanumSquare, Noto Sans CJK KR, Malgun Gothic, Arial, sans-serif" font-size="24" font-weight="800" text-anchor="start" x="558" y="770.0">사내 시스템 응답 API</text>
  <text fill="#536985" font-family="NanumSquareRound, NanumSquare, Noto Sans CJK KR, Malgun Gothic, Arial, sans-serif" font-size="18" font-weight="700" text-anchor="start" x="558" y="804.0">
    <tspan dy="0" x="558">사내 포맷 변환</tspan>
    <tspan dy="27" x="558">상태 업데이트</tspan>
  </text>
  <rect fill="#EAF0FA" height="140" opacity="0.5" rx="16" ry="16" stroke="none" stroke-width="0" width="380" x="934" y="723.0"/>
  <rect fill="#FFFFFF" height="140" rx="16" ry="16" stroke="#09204B" stroke-width="3" width="380" x="930" y="718.0"/>
  <line stroke="#238A3A" stroke-linecap="round" stroke-width="7" x1="948" x2="1292" y1="720.0" y2="720.0"/>
  <rect fill="#F7FAFF" height="62" rx="9" ry="9" stroke="#238A3A" stroke-width="3" width="62" x="959" y="763.0"/>
  <circle cx="976" cy="780.0" fill="#238A3A" r="4.2"/>
  <line stroke="#238A3A" stroke-linecap="round" stroke-width="3.2" x1="988" x2="1008" y1="780.0" y2="780.0"/>
  <circle cx="976" cy="794.0" fill="#238A3A" r="4.2"/>
  <line stroke="#238A3A" stroke-linecap="round" stroke-width="3.2" x1="988" x2="1008" y1="794.0" y2="794.0"/>
  <circle cx="976" cy="808.0" fill="#238A3A" r="4.2"/>
  <line stroke="#238A3A" stroke-linecap="round" stroke-width="3.2" x1="988" x2="1008" y1="808.0" y2="808.0"/>
  <text dominant-baseline="middle" fill="#0F1B2E" font-family="NanumSquareRound, NanumSquare, Noto Sans CJK KR, Malgun Gothic, Arial, sans-serif" font-size="24" font-weight="800" text-anchor="start" x="1038" y="770.0">모델 응답 API</text>
  <text fill="#536985" font-family="NanumSquareRound, NanumSquare, Noto Sans CJK KR, Malgun Gothic, Arial, sans-serif" font-size="18" font-weight="700" text-anchor="start" x="1038" y="804.0">
    <tspan dy="0" x="1038">결과 수신 / 조회</tspan>
    <tspan dy="27" x="1038">응답 포맷 정리</tspan>
  </text>
  <line stroke="#245FD6" stroke-linecap="round" stroke-width="5.5" x1="385" x2="425" y1="456" y2="456"/>
  <polygon fill="#245FD6" points="444,456 425,445 425,467"/>
  <line stroke="#245FD6" stroke-linecap="round" stroke-width="5.5" x1="830" x2="905" y1="456" y2="456"/>
  <polygon fill="#245FD6" points="924,456 905,445 905,467"/>
  <line stroke="#245FD6" stroke-linecap="round" stroke-width="5.5" x1="1310" x2="1510" y1="456" y2="456"/>
  <polygon fill="#245FD6" points="1529,456 1510,445 1510,467"/>
  <line stroke="#238A3A" stroke-linecap="round" stroke-width="5.5" x1="1535" x2="1335" y1="788" y2="788"/>
  <polygon fill="#238A3A" points="1316,788 1335,777 1335,799"/>
  <line stroke="#238A3A" stroke-linecap="round" stroke-width="5.5" x1="930" x2="855" y1="788" y2="788"/>
  <polygon fill="#238A3A" points="836,788 855,777 855,799"/>
  <line stroke="#238A3A" stroke-linecap="round" stroke-width="5.5" x1="450" x2="410" y1="788" y2="788"/>
  <polygon fill="#238A3A" points="391,788 410,777 410,799"/>
  <circle cx="385" cy="456" fill="#245FD6" r="7.5" stroke="#FFFFFF" stroke-width="3"/>
  <circle cx="1535" cy="456" fill="#245FD6" r="7.5" stroke="#FFFFFF" stroke-width="3"/>
  <circle cx="1535" cy="788" fill="#238A3A" r="7.5" stroke="#FFFFFF" stroke-width="3"/>
  <circle cx="385" cy="788" fill="#238A3A" r="7.5" stroke="#FFFFFF" stroke-width="3"/>
  <circle cx="418" cy="456" fill="#245FD6" r="19" stroke="#FFFFFF" stroke-width="4"/>
  <text dominant-baseline="middle" fill="#FFFFFF" font-family="NanumSquareRound, NanumSquare, Noto Sans CJK KR, Malgun Gothic, Arial, sans-serif" font-size="20" font-weight="900" text-anchor="middle" x="418" y="457">1</text>
  <circle cx="878" cy="456" fill="#245FD6" r="19" stroke="#FFFFFF" stroke-width="4"/>
  <text dominant-baseline="middle" fill="#FFFFFF" font-family="NanumSquareRound, NanumSquare, Noto Sans CJK KR, Malgun Gothic, Arial, sans-serif" font-size="20" font-weight="900" text-anchor="middle" x="878" y="457">2</text>
  <circle cx="1414" cy="456" fill="#245FD6" r="19" stroke="#FFFFFF" stroke-width="4"/>
  <text dominant-baseline="middle" fill="#FFFFFF" font-family="NanumSquareRound, NanumSquare, Noto Sans CJK KR, Malgun Gothic, Arial, sans-serif" font-size="20" font-weight="900" text-anchor="middle" x="1414" y="457">3</text>
  <circle cx="1414" cy="788" fill="#238A3A" r="19" stroke="#FFFFFF" stroke-width="4"/>
  <text dominant-baseline="middle" fill="#FFFFFF" font-family="NanumSquareRound, NanumSquare, Noto Sans CJK KR, Malgun Gothic, Arial, sans-serif" font-size="20" font-weight="900" text-anchor="middle" x="1414" y="789">4</text>
  <circle cx="878" cy="788" fill="#238A3A" r="19" stroke="#FFFFFF" stroke-width="4"/>
  <text dominant-baseline="middle" fill="#FFFFFF" font-family="NanumSquareRound, NanumSquare, Noto Sans CJK KR, Malgun Gothic, Arial, sans-serif" font-size="20" font-weight="900" text-anchor="middle" x="878" y="789">5</text>
  <circle cx="418" cy="788" fill="#238A3A" r="19" stroke="#FFFFFF" stroke-width="4"/>
  <text dominant-baseline="middle" fill="#FFFFFF" font-family="NanumSquareRound, NanumSquare, Noto Sans CJK KR, Malgun Gothic, Arial, sans-serif" font-size="20" font-weight="900" text-anchor="middle" x="418" y="789">6</text>
  <rect fill="#FFFFFF" height="86" rx="14" ry="14" stroke="#D9E5F6" stroke-width="2" width="290" x="96" y="966"/>
  <text dominant-baseline="middle" fill="#0F1B2E" font-family="NanumSquareRound, NanumSquare, Noto Sans CJK KR, Malgun Gothic, Arial, sans-serif" font-size="18" font-weight="800" text-anchor="middle" x="241" y="991">Legend</text>
  <line stroke="#245FD6" stroke-linecap="round" stroke-width="5.5" x1="138" x2="183" y1="1022" y2="1022"/>
  <polygon fill="#245FD6" points="202,1022 183,1011 183,1033"/>
  <text dominant-baseline="middle" fill="#245FD6" font-family="NanumSquareRound, NanumSquare, Noto Sans CJK KR, Malgun Gothic, Arial, sans-serif" font-size="17" font-weight="900" text-anchor="start" x="248" y="1022">요청</text>
  <line stroke="#238A3A" stroke-linecap="round" stroke-width="5.5" x1="138" x2="183" y1="1041" y2="1041"/>
  <polygon fill="#238A3A" points="202,1041 183,1030 183,1052"/>
  <text dominant-baseline="middle" fill="#238A3A" font-family="NanumSquareRound, NanumSquare, Noto Sans CJK KR, Malgun Gothic, Arial, sans-serif" font-size="17" font-weight="900" text-anchor="start" x="248" y="1041">응답</text>
  <rect fill="#F7FAFF" height="86" rx="14" ry="14" stroke="#D9E5F6" stroke-width="2" width="1512" x="424" y="966"/>
  <rect fill="#EAF3FF" height="48" rx="10" ry="10" stroke="#9AC0FF" stroke-width="2" width="48" x="452" y="990"/>
  <text dominant-baseline="middle" fill="#245FD6" font-family="NanumSquareRound, NanumSquare, Noto Sans CJK KR, Malgun Gothic, Arial, sans-serif" font-size="31" font-weight="900" text-anchor="middle" x="476" y="1015">i</text>
  <text dominant-baseline="middle" fill="#0F1B2E" font-family="NanumSquareRound, NanumSquare, Noto Sans CJK KR, Malgun Gothic, Arial, sans-serif" font-size="22" font-weight="900" text-anchor="start" x="530" y="999">정리 기준</text>
  <text dominant-baseline="middle" fill="#536985" font-family="NanumSquareRound, NanumSquare, Noto Sans CJK KR, Malgun Gothic, Arial, sans-serif" font-size="19" font-weight="700" text-anchor="start" x="530" y="1029">API 카드와 Server 포트는 동일한 수평 기준선에 맞추고, 요청/응답 경로만 남겼습니다.</text>
</svg>
