<svg xmlns="http://www.w3.org/2000/svg" width="2048" height="1152" viewBox="0 0 2048 1152">
<defs>
  <filter id="shadow" x="-10%" y="-10%" width="120%" height="130%"><feDropShadow dx="0" dy="18" stdDeviation="18" flood-color="#0B1533" flood-opacity="0.14"/></filter>
  <filter id="soft" x="-10%" y="-10%" width="120%" height="120%"><feDropShadow dx="0" dy="8" stdDeviation="8" flood-color="#0B1533" flood-opacity="0.08"/></filter>
  <marker id="arrow-blue" markerWidth="22" markerHeight="22" refX="19" refY="11" orient="auto" markerUnits="userSpaceOnUse"><path d="M2,3 L19,11 L2,19 Z" fill="#0B57C7"/></marker>
  <marker id="arrow-navy" markerWidth="20" markerHeight="20" refX="17" refY="10" orient="auto" markerUnits="userSpaceOnUse"><path d="M2,3 L17,10 L2,17 Z" fill="#1A2A44"/></marker>
  <marker id="arrow-navy-start" markerWidth="20" markerHeight="20" refX="3" refY="10" orient="auto" markerUnits="userSpaceOnUse"><path d="M17,3 L3,10 L17,17 Z" fill="#1A2A44"/></marker>
  <linearGradient id="cardGrad" x1="0" y1="0" x2="1" y2="1"><stop offset="0" stop-color="#FFFFFF"/><stop offset="1" stop-color="#F7FAFF"/></linearGradient>
</defs>
<rect width="2048" height="1152" fill="#F4F7FB"/><rect x="54" y="48" width="1940" height="1056" rx="28" ry="28" fill="url(#cardGrad)" stroke="#E1E8F2" stroke-width="1.4" opacity="1" filter="url(#shadow)"/><text x="98" y="105" fill="#0B1533" font-size="43" font-family="NanumSquareRound, NanumGothic, Inter, Arial, sans-serif" font-weight="900" text-anchor="start" opacity="1">Queue 기반 AI Inference Pipeline 구조</text><text x="100" y="145" fill="#59647A" font-size="21" font-family="NanumSquareRound, NanumGothic, Inter, Arial, sans-serif" font-weight="700" text-anchor="start" opacity="1">Ingress → Request Producer → Request Queue → Engine Producer → Engine Queue → Model Server</text><rect x="1588" y="78" width="322" height="54" rx="27" ry="27" fill="#F2F7FF" stroke="#A8C7FA" stroke-width="1.5" opacity="1"/><circle cx="1622" cy="105" r="10" fill="#2563EB"/><text x="1648" y="114" fill="#0B1533" font-size="18" font-family="NanumSquareRound, NanumGothic, Inter, Arial, sans-serif" font-weight="900" text-anchor="start" opacity="1">비동기 큐 기반 Runtime</text><rect x="96" y="190" width="1856" height="178" rx="22" ry="22" fill="#EEF8E9" stroke="#B9DFAB" stroke-width="2" opacity="1"/><rect x="122" y="210" width="250" height="44" rx="22" ry="22" fill="#FFFFFF" stroke="#CFE7C5" stroke-width="1.5" opacity="1"/><text x="247" y="239" fill="#3E7C2F" font-size="20" font-family="NanumSquareRound, NanumGothic, Inter, Arial, sans-serif" font-weight="900" text-anchor="middle" opacity="1">Shared Data Layer</text><text x="126" y="285" fill="#102A52" font-size="20" font-family="NanumSquareRound, NanumGothic, Inter, Arial, sans-serif" font-weight="900" text-anchor="start" opacity="1">공통 상태 저장소</text><text x="126" y="316" fill="#59647A" font-size="16" font-family="NanumSquareRound, NanumGothic, Inter, Arial, sans-serif" font-weight="700" text-anchor="start" opacity="1">캐시 · 세션 · 메타데이터 · 결과 이력</text><rect x="550" y="222" width="445" height="106" rx="18" ry="18" fill="#6FAF48" stroke="#3E7C2F" stroke-width="2.2" opacity="1" filter="url(#soft)"/><g transform="translate(580,240) scale(0.8)"><ellipse cx="38" cy="12" rx="34" ry="10" fill="none" stroke="#FFFFFF" stroke-width="4"/><path d="M4 12 V62 C4 68 19 73 38 73 C57 73 72 68 72 62 V12" fill="none" stroke="#FFFFFF" stroke-width="4"/><path d="M4 37 C4 43 19 48 38 48 C57 48 72 43 72 37" fill="none" stroke="#FFFFFF" stroke-width="4" opacity="0.85"/></g><text x="678" y="266" fill="#FFFFFF" font-size="32" font-family="NanumSquareRound, NanumGothic, Inter, Arial, sans-serif" font-weight="900" text-anchor="start" opacity="1">Redis</text><text x="678" y="297" fill="#F3FFE9" font-size="16" font-family="NanumSquareRound, NanumGothic, Inter, Arial, sans-serif" font-weight="700" text-anchor="start" opacity="1">cache / pub-sub / transient state</text><rect x="1138" y="222" width="445" height="106" rx="18" ry="18" fill="#6FAF48" stroke="#3E7C2F" stroke-width="2.2" opacity="1" filter="url(#soft)"/><g transform="translate(1168,240) scale(0.8)"><ellipse cx="38" cy="12" rx="34" ry="10" fill="none" stroke="#FFFFFF" stroke-width="4"/><path d="M4 12 V62 C4 68 19 73 38 73 C57 73 72 68 72 62 V12" fill="none" stroke="#FFFFFF" stroke-width="4"/><path d="M4 37 C4 43 19 48 38 48 C57 48 72 43 72 37" fill="none" stroke="#FFFFFF" stroke-width="4" opacity="0.85"/></g><text x="1266" y="266" fill="#FFFFFF" font-size="32" font-family="NanumSquareRound, NanumGothic, Inter, Arial, sans-serif" font-weight="900" text-anchor="start" opacity="1">MongoDB</text><text x="1266" y="297" fill="#F3FFE9" font-size="16" font-family="NanumSquareRound, NanumGothic, Inter, Arial, sans-serif" font-weight="700" text-anchor="start" opacity="1">metadata / history / persistent state</text><rect x="84" y="414" width="1880" height="526" rx="24" ry="24" fill="#F2F7FF" stroke="#A8C7FA" stroke-width="2" opacity="1"/><rect x="112" y="436" width="220" height="30" rx="15" ry="15" fill="#FFFFFF" stroke="#D7E6FF" stroke-width="1.2" opacity="1"/><text x="222.0" y="457" fill="#0B57C7" font-size="15" font-family="NanumSquareRound, NanumGothic, Inter, Arial, sans-serif" font-weight="800" text-anchor="middle" opacity="1">Runtime Request Flow</text><text x="350" y="462" fill="#59647A" font-size="16" font-family="NanumSquareRound, NanumGothic, Inter, Arial, sans-serif" font-weight="700" text-anchor="start" opacity="1">파란 실선은 주 요청 흐름, 남색 점선은 공통 데이터 접근 흐름입니다.</text><path d="M 38 704 C 66 704, 90 704, 113 704" fill="none" stroke="#1A2A44" stroke-width="4" stroke-linecap="round" stroke-linejoin="round" opacity="0.9" stroke-dasharray="1 11" marker-end="url(#arrow-navy)"/><text x="48" y="672" fill="#59647A" font-size="15" font-family="NanumSquareRound, NanumGothic, Inter, Arial, sans-serif" font-weight="600" text-anchor="start" opacity="1">external traffic</text><line x1="200" y1="704" x2="245" y2="704" stroke="#0B57C7" stroke-width="5" stroke-linecap="round" opacity="1" marker-end="url(#arrow-blue)"/><line x1="545" y1="704" x2="620" y2="704" stroke="#0B57C7" stroke-width="5" stroke-linecap="round" opacity="1" marker-end="url(#arrow-blue)"/><line x1="830" y1="704" x2="905" y2="704" stroke="#0B57C7" stroke-width="5" stroke-linecap="round" opacity="1" marker-end="url(#arrow-blue)"/><line x1="1205" y1="704" x2="1280" y2="704" stroke="#0B57C7" stroke-width="5" stroke-linecap="round" opacity="1" marker-end="url(#arrow-blue)"/><line x1="1490" y1="704" x2="1563" y2="704" stroke="#0B57C7" stroke-width="5" stroke-linecap="round" opacity="1" marker-end="url(#arrow-blue)"/><line x1="395" y1="508" x2="395" y2="368" stroke="#1A2A44" stroke-width="3.5" stroke-linecap="round" opacity="0.9" stroke-dasharray="4 9" marker-start="url(#arrow-navy-start)" marker-end="url(#arrow-navy)"/><rect x="325" y="385" width="140" height="30" rx="15" ry="15" fill="#FFFFFF" stroke="#D7E6FF" stroke-width="1.2" opacity="1"/><text x="395.0" y="406" fill="#59647A" font-size="15" font-family="NanumSquareRound, NanumGothic, Inter, Arial, sans-serif" font-weight="800" text-anchor="middle" opacity="1">state / result</text><line x1="1055" y1="508" x2="1055" y2="368" stroke="#1A2A44" stroke-width="3.5" stroke-linecap="round" opacity="0.9" stroke-dasharray="4 9" marker-start="url(#arrow-navy-start)" marker-end="url(#arrow-navy)"/><rect x="985" y="385" width="140" height="30" rx="15" ry="15" fill="#FFFFFF" stroke="#D7E6FF" stroke-width="1.2" opacity="1"/><text x="1055.0" y="406" fill="#59647A" font-size="15" font-family="NanumSquareRound, NanumGothic, Inter, Arial, sans-serif" font-weight="800" text-anchor="middle" opacity="1">job state</text><line x1="1713" y1="508" x2="1713" y2="368" stroke="#1A2A44" stroke-width="3.5" stroke-linecap="round" opacity="0.9" stroke-dasharray="4 9" marker-start="url(#arrow-navy-start)" marker-end="url(#arrow-navy)"/><rect x="1643" y="385" width="140" height="30" rx="15" ry="15" fill="#FFFFFF" stroke="#D7E6FF" stroke-width="1.2" opacity="1"/><text x="1713.0" y="406" fill="#59647A" font-size="15" font-family="NanumSquareRound, NanumGothic, Inter, Arial, sans-serif" font-weight="800" text-anchor="middle" opacity="1">model metadata</text><rect x="116" y="586" width="82" height="250" rx="18" ry="18" fill="#6FAF48" stroke="#3E7C2F" stroke-width="3" opacity="1" filter="url(#soft)"/><text x="157" y="718" fill="#FFFFFF" font-size="34" font-family="NanumSquareRound, NanumGothic, Inter, Arial, sans-serif" font-weight="900" text-anchor="middle" opacity="1" transform="rotate(90 157 718)">Ingress</text><rect x="250" y="508" width="290" height="396" rx="34" ry="34" fill="#FFFFFF" stroke="#102A52" stroke-width="3" opacity="1" filter="url(#soft)"/><rect x="272" y="528" width="246" height="40" rx="20" ry="20" fill="#F2F7FF" stroke="#D7E6FF" stroke-width="1.3" opacity="1"/><text x="395.0" y="555" fill="#0B57C7" font-size="22" font-family="NanumSquareRound, NanumGothic, Inter, Arial, sans-serif" font-weight="900" text-anchor="middle" opacity="1">Request Producer</text><text x="395.0" y="594" fill="#59647A" font-size="15" font-family="NanumSquareRound, NanumGothic, Inter, Arial, sans-serif" font-weight="700" text-anchor="middle" opacity="1">request validation · routing</text><rect x="435" y="580" width="74" height="28" rx="14" ry="14" fill="#EEF8E9" stroke="#B9DFAB" stroke-width="1" opacity="1"/><text x="472" y="600" fill="#3E7C2F" font-size="13" font-family="NanumSquareRound, NanumGothic, Inter, Arial, sans-serif" font-weight="900" text-anchor="middle" opacity="1">N Pods</text><rect x="277" y="608" width="236" height="74" rx="14" ry="14" fill="#FFFFFF" stroke="#D7E6FF" stroke-width="1.5" opacity="1"/><g transform="translate(294,621) scale(0.54)"><rect x="0" y="0" width="66" height="15" rx="3" fill="#102A52"/><circle cx="14" cy="7.5" r="2.3" fill="#FFFFFF" opacity="0.95"/><circle cx="27" cy="7.5" r="2.3" fill="#FFFFFF" opacity="0.95"/><circle cx="40" cy="7.5" r="2.3" fill="#FFFFFF" opacity="0.95"/><rect x="0" y="20" width="66" height="15" rx="3" fill="#102A52"/><circle cx="14" cy="27.5" r="2.3" fill="#FFFFFF" opacity="0.95"/><circle cx="27" cy="27.5" r="2.3" fill="#FFFFFF" opacity="0.95"/><circle cx="40" cy="27.5" r="2.3" fill="#FFFFFF" opacity="0.95"/><rect x="0" y="40" width="66" height="15" rx="3" fill="#102A52"/><circle cx="14" cy="47.5" r="2.3" fill="#FFFFFF" opacity="0.95"/><circle cx="27" cy="47.5" r="2.3" fill="#FFFFFF" opacity="0.95"/><circle cx="40" cy="47.5" r="2.3" fill="#FFFFFF" opacity="0.95"/><rect x="29" y="60" width="8" height="18" rx="1" fill="#102A52"/><rect x="-5" y="76" width="76" height="6" rx="1.5" fill="#102A52"/></g><text x="359" y="639" fill="#0B1533" font-size="18" font-family="NanumSquareRound, NanumGothic, Inter, Arial, sans-serif" font-weight="800" text-anchor="start" opacity="1">Producer #1</text><text x="359" y="664" fill="#59647A" font-size="13" font-family="NanumSquareRound, NanumGothic, Inter, Arial, sans-serif" font-weight="600" text-anchor="start" opacity="1">stateless worker pod</text><circle cx="497" cy="626" r="6" fill="#2563EB" opacity="0.85"/><rect x="277" y="704" width="236" height="74" rx="14" ry="14" fill="#FFFFFF" stroke="#D7E6FF" stroke-width="1.5" opacity="1"/><g transform="translate(294,717) scale(0.54)"><rect x="0" y="0" width="66" height="15" rx="3" fill="#102A52"/><circle cx="14" cy="7.5" r="2.3" fill="#FFFFFF" opacity="0.95"/><circle cx="27" cy="7.5" r="2.3" fill="#FFFFFF" opacity="0.95"/><circle cx="40" cy="7.5" r="2.3" fill="#FFFFFF" opacity="0.95"/><rect x="0" y="20" width="66" height="15" rx="3" fill="#102A52"/><circle cx="14" cy="27.5" r="2.3" fill="#FFFFFF" opacity="0.95"/><circle cx="27" cy="27.5" r="2.3" fill="#FFFFFF" opacity="0.95"/><circle cx="40" cy="27.5" r="2.3" fill="#FFFFFF" opacity="0.95"/><rect x="0" y="40" width="66" height="15" rx="3" fill="#102A52"/><circle cx="14" cy="47.5" r="2.3" fill="#FFFFFF" opacity="0.95"/><circle cx="27" cy="47.5" r="2.3" fill="#FFFFFF" opacity="0.95"/><circle cx="40" cy="47.5" r="2.3" fill="#FFFFFF" opacity="0.95"/><rect x="29" y="60" width="8" height="18" rx="1" fill="#102A52"/><rect x="-5" y="76" width="76" height="6" rx="1.5" fill="#102A52"/></g><text x="359" y="735" fill="#0B1533" font-size="18" font-family="NanumSquareRound, NanumGothic, Inter, Arial, sans-serif" font-weight="800" text-anchor="start" opacity="1">Producer #2</text><text x="359" y="760" fill="#59647A" font-size="13" font-family="NanumSquareRound, NanumGothic, Inter, Arial, sans-serif" font-weight="600" text-anchor="start" opacity="1">stateless worker pod</text><circle cx="497" cy="722" r="6" fill="#2563EB" opacity="0.85"/><rect x="277" y="800" width="236" height="74" rx="14" ry="14" fill="#FFFFFF" stroke="#D7E6FF" stroke-width="1.5" opacity="1"/><g transform="translate(294,813) scale(0.54)"><rect x="0" y="0" width="66" height="15" rx="3" fill="#102A52"/><circle cx="14" cy="7.5" r="2.3" fill="#FFFFFF" opacity="0.95"/><circle cx="27" cy="7.5" r="2.3" fill="#FFFFFF" opacity="0.95"/><circle cx="40" cy="7.5" r="2.3" fill="#FFFFFF" opacity="0.95"/><rect x="0" y="20" width="66" height="15" rx="3" fill="#102A52"/><circle cx="14" cy="27.5" r="2.3" fill="#FFFFFF" opacity="0.95"/><circle cx="27" cy="27.5" r="2.3" fill="#FFFFFF" opacity="0.95"/><circle cx="40" cy="27.5" r="2.3" fill="#FFFFFF" opacity="0.95"/><rect x="0" y="40" width="66" height="15" rx="3" fill="#102A52"/><circle cx="14" cy="47.5" r="2.3" fill="#FFFFFF" opacity="0.95"/><circle cx="27" cy="47.5" r="2.3" fill="#FFFFFF" opacity="0.95"/><circle cx="40" cy="47.5" r="2.3" fill="#FFFFFF" opacity="0.95"/><rect x="29" y="60" width="8" height="18" rx="1" fill="#102A52"/><rect x="-5" y="76" width="76" height="6" rx="1.5" fill="#102A52"/></g><text x="359" y="831" fill="#0B1533" font-size="18" font-family="NanumSquareRound, NanumGothic, Inter, Arial, sans-serif" font-weight="800" text-anchor="start" opacity="1">Producer #3</text><text x="359" y="856" fill="#59647A" font-size="13" font-family="NanumSquareRound, NanumGothic, Inter, Arial, sans-serif" font-weight="600" text-anchor="start" opacity="1">stateless worker pod</text><circle cx="497" cy="818" r="6" fill="#2563EB" opacity="0.85"/><ellipse cx="726.0" cy="806" rx="84.84" ry="13" fill="#000000" opacity="0.08"/><rect x="653" y="622" width="146" height="166" fill="#6FAF48" stroke="#3E7C2F" stroke-width="3"/><ellipse cx="653" cy="705.0" rx="28" ry="83.0" fill="#A9D98D" stroke="#3E7C2F" stroke-width="3"/><ellipse cx="799" cy="705.0" rx="28" ry="83.0" fill="#6FAF48" stroke="#3E7C2F" stroke-width="3"/><text x="732.0" y="691.0" fill="#FFFFFF" font-size="30" font-family="NanumSquareRound, NanumGothic, Inter, Arial, sans-serif" font-weight="800" text-anchor="middle"><tspan x="732.0" dy="0">Request</tspan><tspan x="732.0" dy="31.5">Queue</tspan></text><rect x="663" y="754" width="126" height="24" rx="12" ry="12" fill="#5C9A3D" stroke="none" stroke-width="1" opacity="0.55"/><text x="726.0" y="771" fill="#FFFFFF" font-size="13" font-family="NanumSquareRound, NanumGothic, Inter, Arial, sans-serif" font-weight="800" text-anchor="middle" opacity="1">FIFO / backlog buffer</text><rect x="910" y="508" width="290" height="396" rx="34" ry="34" fill="#FFFFFF" stroke="#102A52" stroke-width="3" opacity="1" filter="url(#soft)"/><rect x="932" y="528" width="246" height="40" rx="20" ry="20" fill="#F2F7FF" stroke="#D7E6FF" stroke-width="1.3" opacity="1"/><text x="1055.0" y="555" fill="#0B57C7" font-size="22" font-family="NanumSquareRound, NanumGothic, Inter, Arial, sans-serif" font-weight="900" text-anchor="middle" opacity="1">Engine Producer</text><text x="1055.0" y="594" fill="#59647A" font-size="15" font-family="NanumSquareRound, NanumGothic, Inter, Arial, sans-serif" font-weight="700" text-anchor="middle" opacity="1">scheduling · orchestration</text><rect x="1095" y="580" width="74" height="28" rx="14" ry="14" fill="#EEF8E9" stroke="#B9DFAB" stroke-width="1" opacity="1"/><text x="1132" y="600" fill="#3E7C2F" font-size="13" font-family="NanumSquareRound, NanumGothic, Inter, Arial, sans-serif" font-weight="900" text-anchor="middle" opacity="1">N Pods</text><rect x="937" y="608" width="236" height="74" rx="14" ry="14" fill="#FFFFFF" stroke="#D7E6FF" stroke-width="1.5" opacity="1"/><g transform="translate(954,621) scale(0.54)"><rect x="0" y="0" width="66" height="15" rx="3" fill="#102A52"/><circle cx="14" cy="7.5" r="2.3" fill="#FFFFFF" opacity="0.95"/><circle cx="27" cy="7.5" r="2.3" fill="#FFFFFF" opacity="0.95"/><circle cx="40" cy="7.5" r="2.3" fill="#FFFFFF" opacity="0.95"/><rect x="0" y="20" width="66" height="15" rx="3" fill="#102A52"/><circle cx="14" cy="27.5" r="2.3" fill="#FFFFFF" opacity="0.95"/><circle cx="27" cy="27.5" r="2.3" fill="#FFFFFF" opacity="0.95"/><circle cx="40" cy="27.5" r="2.3" fill="#FFFFFF" opacity="0.95"/><rect x="0" y="40" width="66" height="15" rx="3" fill="#102A52"/><circle cx="14" cy="47.5" r="2.3" fill="#FFFFFF" opacity="0.95"/><circle cx="27" cy="47.5" r="2.3" fill="#FFFFFF" opacity="0.95"/><circle cx="40" cy="47.5" r="2.3" fill="#FFFFFF" opacity="0.95"/><rect x="29" y="60" width="8" height="18" rx="1" fill="#102A52"/><rect x="-5" y="76" width="76" height="6" rx="1.5" fill="#102A52"/></g><text x="1019" y="639" fill="#0B1533" font-size="18" font-family="NanumSquareRound, NanumGothic, Inter, Arial, sans-serif" font-weight="800" text-anchor="start" opacity="1">Engine #1</text><text x="1019" y="664" fill="#59647A" font-size="13" font-family="NanumSquareRound, NanumGothic, Inter, Arial, sans-serif" font-weight="600" text-anchor="start" opacity="1">stateless worker pod</text><circle cx="1157" cy="626" r="6" fill="#2563EB" opacity="0.85"/><rect x="937" y="704" width="236" height="74" rx="14" ry="14" fill="#FFFFFF" stroke="#D7E6FF" stroke-width="1.5" opacity="1"/><g transform="translate(954,717) scale(0.54)"><rect x="0" y="0" width="66" height="15" rx="3" fill="#102A52"/><circle cx="14" cy="7.5" r="2.3" fill="#FFFFFF" opacity="0.95"/><circle cx="27" cy="7.5" r="2.3" fill="#FFFFFF" opacity="0.95"/><circle cx="40" cy="7.5" r="2.3" fill="#FFFFFF" opacity="0.95"/><rect x="0" y="20" width="66" height="15" rx="3" fill="#102A52"/><circle cx="14" cy="27.5" r="2.3" fill="#FFFFFF" opacity="0.95"/><circle cx="27" cy="27.5" r="2.3" fill="#FFFFFF" opacity="0.95"/><circle cx="40" cy="27.5" r="2.3" fill="#FFFFFF" opacity="0.95"/><rect x="0" y="40" width="66" height="15" rx="3" fill="#102A52"/><circle cx="14" cy="47.5" r="2.3" fill="#FFFFFF" opacity="0.95"/><circle cx="27" cy="47.5" r="2.3" fill="#FFFFFF" opacity="0.95"/><circle cx="40" cy="47.5" r="2.3" fill="#FFFFFF" opacity="0.95"/><rect x="29" y="60" width="8" height="18" rx="1" fill="#102A52"/><rect x="-5" y="76" width="76" height="6" rx="1.5" fill="#102A52"/></g><text x="1019" y="735" fill="#0B1533" font-size="18" font-family="NanumSquareRound, NanumGothic, Inter, Arial, sans-serif" font-weight="800" text-anchor="start" opacity="1">Engine #2</text><text x="1019" y="760" fill="#59647A" font-size="13" font-family="NanumSquareRound, NanumGothic, Inter, Arial, sans-serif" font-weight="600" text-anchor="start" opacity="1">stateless worker pod</text><circle cx="1157" cy="722" r="6" fill="#2563EB" opacity="0.85"/><rect x="937" y="800" width="236" height="74" rx="14" ry="14" fill="#FFFFFF" stroke="#D7E6FF" stroke-width="1.5" opacity="1"/><g transform="translate(954,813) scale(0.54)"><rect x="0" y="0" width="66" height="15" rx="3" fill="#102A52"/><circle cx="14" cy="7.5" r="2.3" fill="#FFFFFF" opacity="0.95"/><circle cx="27" cy="7.5" r="2.3" fill="#FFFFFF" opacity="0.95"/><circle cx="40" cy="7.5" r="2.3" fill="#FFFFFF" opacity="0.95"/><rect x="0" y="20" width="66" height="15" rx="3" fill="#102A52"/><circle cx="14" cy="27.5" r="2.3" fill="#FFFFFF" opacity="0.95"/><circle cx="27" cy="27.5" r="2.3" fill="#FFFFFF" opacity="0.95"/><circle cx="40" cy="27.5" r="2.3" fill="#FFFFFF" opacity="0.95"/><rect x="0" y="40" width="66" height="15" rx="3" fill="#102A52"/><circle cx="14" cy="47.5" r="2.3" fill="#FFFFFF" opacity="0.95"/><circle cx="27" cy="47.5" r="2.3" fill="#FFFFFF" opacity="0.95"/><circle cx="40" cy="47.5" r="2.3" fill="#FFFFFF" opacity="0.95"/><rect x="29" y="60" width="8" height="18" rx="1" fill="#102A52"/><rect x="-5" y="76" width="76" height="6" rx="1.5" fill="#102A52"/></g><text x="1019" y="831" fill="#0B1533" font-size="18" font-family="NanumSquareRound, NanumGothic, Inter, Arial, sans-serif" font-weight="800" text-anchor="start" opacity="1">Engine #3</text><text x="1019" y="856" fill="#59647A" font-size="13" font-family="NanumSquareRound, NanumGothic, Inter, Arial, sans-serif" font-weight="600" text-anchor="start" opacity="1">stateless worker pod</text><circle cx="1157" cy="818" r="6" fill="#2563EB" opacity="0.85"/><ellipse cx="1386.0" cy="806" rx="84.84" ry="13" fill="#000000" opacity="0.08"/><rect x="1313" y="622" width="146" height="166" fill="#6FAF48" stroke="#3E7C2F" stroke-width="3"/><ellipse cx="1313" cy="705.0" rx="28" ry="83.0" fill="#A9D98D" stroke="#3E7C2F" stroke-width="3"/><ellipse cx="1459" cy="705.0" rx="28" ry="83.0" fill="#6FAF48" stroke="#3E7C2F" stroke-width="3"/><text x="1392.0" y="691.0" fill="#FFFFFF" font-size="30" font-family="NanumSquareRound, NanumGothic, Inter, Arial, sans-serif" font-weight="800" text-anchor="middle"><tspan x="1392.0" dy="0">Engine</tspan><tspan x="1392.0" dy="31.5">Queue</tspan></text><rect x="1323" y="754" width="126" height="24" rx="12" ry="12" fill="#5C9A3D" stroke="none" stroke-width="1" opacity="0.55"/><text x="1386.0" y="771" fill="#FFFFFF" font-size="13" font-family="NanumSquareRound, NanumGothic, Inter, Arial, sans-serif" font-weight="800" text-anchor="middle" opacity="1">dispatch queue</text><rect x="1568" y="508" width="290" height="396" rx="34" ry="34" fill="#FFFFFF" stroke="#102A52" stroke-width="3" opacity="1" filter="url(#soft)"/><rect x="1590" y="528" width="246" height="40" rx="20" ry="20" fill="#F2F7FF" stroke="#D7E6FF" stroke-width="1.3" opacity="1"/><text x="1713.0" y="555" fill="#0B57C7" font-size="22" font-family="NanumSquareRound, NanumGothic, Inter, Arial, sans-serif" font-weight="900" text-anchor="middle" opacity="1">Model Server</text><text x="1713.0" y="594" fill="#59647A" font-size="15" font-family="NanumSquareRound, NanumGothic, Inter, Arial, sans-serif" font-weight="700" text-anchor="middle" opacity="1">model inference runtime</text><rect x="1753" y="580" width="74" height="28" rx="14" ry="14" fill="#EEF8E9" stroke="#B9DFAB" stroke-width="1" opacity="1"/><text x="1790" y="600" fill="#3E7C2F" font-size="13" font-family="NanumSquareRound, NanumGothic, Inter, Arial, sans-serif" font-weight="900" text-anchor="middle" opacity="1">N Pods</text><rect x="1595" y="608" width="236" height="74" rx="14" ry="14" fill="#FFFFFF" stroke="#D7E6FF" stroke-width="1.5" opacity="1"/><g transform="translate(1612,621) scale(0.54)"><rect x="0" y="0" width="66" height="15" rx="3" fill="#102A52"/><circle cx="14" cy="7.5" r="2.3" fill="#FFFFFF" opacity="0.95"/><circle cx="27" cy="7.5" r="2.3" fill="#FFFFFF" opacity="0.95"/><circle cx="40" cy="7.5" r="2.3" fill="#FFFFFF" opacity="0.95"/><rect x="0" y="20" width="66" height="15" rx="3" fill="#102A52"/><circle cx="14" cy="27.5" r="2.3" fill="#FFFFFF" opacity="0.95"/><circle cx="27" cy="27.5" r="2.3" fill="#FFFFFF" opacity="0.95"/><circle cx="40" cy="27.5" r="2.3" fill="#FFFFFF" opacity="0.95"/><rect x="0" y="40" width="66" height="15" rx="3" fill="#102A52"/><circle cx="14" cy="47.5" r="2.3" fill="#FFFFFF" opacity="0.95"/><circle cx="27" cy="47.5" r="2.3" fill="#FFFFFF" opacity="0.95"/><circle cx="40" cy="47.5" r="2.3" fill="#FFFFFF" opacity="0.95"/><rect x="29" y="60" width="8" height="18" rx="1" fill="#102A52"/><rect x="-5" y="76" width="76" height="6" rx="1.5" fill="#102A52"/></g><text x="1677" y="639" fill="#0B1533" font-size="18" font-family="NanumSquareRound, NanumGothic, Inter, Arial, sans-serif" font-weight="800" text-anchor="start" opacity="1">Model #1</text><text x="1677" y="664" fill="#59647A" font-size="13" font-family="NanumSquareRound, NanumGothic, Inter, Arial, sans-serif" font-weight="600" text-anchor="start" opacity="1">GPU / inference runtime</text><circle cx="1815" cy="626" r="6" fill="#6FAF48" opacity="0.85"/><rect x="1595" y="704" width="236" height="74" rx="14" ry="14" fill="#FFFFFF" stroke="#D7E6FF" stroke-width="1.5" opacity="1"/><g transform="translate(1612,717) scale(0.54)"><rect x="0" y="0" width="66" height="15" rx="3" fill="#102A52"/><circle cx="14" cy="7.5" r="2.3" fill="#FFFFFF" opacity="0.95"/><circle cx="27" cy="7.5" r="2.3" fill="#FFFFFF" opacity="0.95"/><circle cx="40" cy="7.5" r="2.3" fill="#FFFFFF" opacity="0.95"/><rect x="0" y="20" width="66" height="15" rx="3" fill="#102A52"/><circle cx="14" cy="27.5" r="2.3" fill="#FFFFFF" opacity="0.95"/><circle cx="27" cy="27.5" r="2.3" fill="#FFFFFF" opacity="0.95"/><circle cx="40" cy="27.5" r="2.3" fill="#FFFFFF" opacity="0.95"/><rect x="0" y="40" width="66" height="15" rx="3" fill="#102A52"/><circle cx="14" cy="47.5" r="2.3" fill="#FFFFFF" opacity="0.95"/><circle cx="27" cy="47.5" r="2.3" fill="#FFFFFF" opacity="0.95"/><circle cx="40" cy="47.5" r="2.3" fill="#FFFFFF" opacity="0.95"/><rect x="29" y="60" width="8" height="18" rx="1" fill="#102A52"/><rect x="-5" y="76" width="76" height="6" rx="1.5" fill="#102A52"/></g><text x="1677" y="735" fill="#0B1533" font-size="18" font-family="NanumSquareRound, NanumGothic, Inter, Arial, sans-serif" font-weight="800" text-anchor="start" opacity="1">Model #2</text><text x="1677" y="760" fill="#59647A" font-size="13" font-family="NanumSquareRound, NanumGothic, Inter, Arial, sans-serif" font-weight="600" text-anchor="start" opacity="1">GPU / inference runtime</text><circle cx="1815" cy="722" r="6" fill="#6FAF48" opacity="0.85"/><rect x="1595" y="800" width="236" height="74" rx="14" ry="14" fill="#FFFFFF" stroke="#D7E6FF" stroke-width="1.5" opacity="1"/><g transform="translate(1612,813) scale(0.54)"><rect x="0" y="0" width="66" height="15" rx="3" fill="#102A52"/><circle cx="14" cy="7.5" r="2.3" fill="#FFFFFF" opacity="0.95"/><circle cx="27" cy="7.5" r="2.3" fill="#FFFFFF" opacity="0.95"/><circle cx="40" cy="7.5" r="2.3" fill="#FFFFFF" opacity="0.95"/><rect x="0" y="20" width="66" height="15" rx="3" fill="#102A52"/><circle cx="14" cy="27.5" r="2.3" fill="#FFFFFF" opacity="0.95"/><circle cx="27" cy="27.5" r="2.3" fill="#FFFFFF" opacity="0.95"/><circle cx="40" cy="27.5" r="2.3" fill="#FFFFFF" opacity="0.95"/><rect x="0" y="40" width="66" height="15" rx="3" fill="#102A52"/><circle cx="14" cy="47.5" r="2.3" fill="#FFFFFF" opacity="0.95"/><circle cx="27" cy="47.5" r="2.3" fill="#FFFFFF" opacity="0.95"/><circle cx="40" cy="47.5" r="2.3" fill="#FFFFFF" opacity="0.95"/><rect x="29" y="60" width="8" height="18" rx="1" fill="#102A52"/><rect x="-5" y="76" width="76" height="6" rx="1.5" fill="#102A52"/></g><text x="1677" y="831" fill="#0B1533" font-size="18" font-family="NanumSquareRound, NanumGothic, Inter, Arial, sans-serif" font-weight="800" text-anchor="start" opacity="1">Model #3</text><text x="1677" y="856" fill="#59647A" font-size="13" font-family="NanumSquareRound, NanumGothic, Inter, Arial, sans-serif" font-weight="600" text-anchor="start" opacity="1">GPU / inference runtime</text><circle cx="1815" cy="818" r="6" fill="#6FAF48" opacity="0.85"/><rect x="548" y="654" width="86" height="30" rx="15" ry="15" fill="#FFFFFF" stroke="#D7E6FF" stroke-width="1.2" opacity="1"/><text x="591.0" y="675" fill="#0B57C7" font-size="15" font-family="NanumSquareRound, NanumGothic, Inter, Arial, sans-serif" font-weight="800" text-anchor="middle" opacity="1">enqueue</text><rect x="830" y="654" width="88" height="30" rx="15" ry="15" fill="#FFFFFF" stroke="#D7E6FF" stroke-width="1.2" opacity="1"/><text x="874.0" y="675" fill="#0B57C7" font-size="15" font-family="NanumSquareRound, NanumGothic, Inter, Arial, sans-serif" font-weight="800" text-anchor="middle" opacity="1">dequeue</text><rect x="1209" y="654" width="86" height="30" rx="15" ry="15" fill="#FFFFFF" stroke="#D7E6FF" stroke-width="1.2" opacity="1"/><text x="1252.0" y="675" fill="#0B57C7" font-size="15" font-family="NanumSquareRound, NanumGothic, Inter, Arial, sans-serif" font-weight="800" text-anchor="middle" opacity="1">enqueue</text><rect x="1490" y="654" width="88" height="30" rx="15" ry="15" fill="#FFFFFF" stroke="#D7E6FF" stroke-width="1.2" opacity="1"/><text x="1534.0" y="675" fill="#0B57C7" font-size="15" font-family="NanumSquareRound, NanumGothic, Inter, Arial, sans-serif" font-weight="800" text-anchor="middle" opacity="1">dequeue</text><rect x="69" y="902" width="176" height="36" rx="18" ry="18" fill="#FFFFFF" stroke="#D7E6FF" stroke-width="1" opacity="1"/><text x="157" y="927" fill="#102A52" font-size="15" font-family="NanumSquareRound, NanumGothic, Inter, Arial, sans-serif" font-weight="900" text-anchor="middle" opacity="1">1. API ingress</text><rect x="307" y="902" width="176" height="36" rx="18" ry="18" fill="#FFFFFF" stroke="#D7E6FF" stroke-width="1" opacity="1"/><text x="395" y="927" fill="#102A52" font-size="15" font-family="NanumSquareRound, NanumGothic, Inter, Arial, sans-serif" font-weight="900" text-anchor="middle" opacity="1">2. request workers</text><rect x="638" y="902" width="176" height="36" rx="18" ry="18" fill="#FFFFFF" stroke="#D7E6FF" stroke-width="1" opacity="1"/><text x="726" y="927" fill="#102A52" font-size="15" font-family="NanumSquareRound, NanumGothic, Inter, Arial, sans-serif" font-weight="900" text-anchor="middle" opacity="1">3. request buffering</text><rect x="967" y="902" width="176" height="36" rx="18" ry="18" fill="#FFFFFF" stroke="#D7E6FF" stroke-width="1" opacity="1"/><text x="1055" y="927" fill="#102A52" font-size="15" font-family="NanumSquareRound, NanumGothic, Inter, Arial, sans-serif" font-weight="900" text-anchor="middle" opacity="1">4. engine workers</text><rect x="1298" y="902" width="176" height="36" rx="18" ry="18" fill="#FFFFFF" stroke="#D7E6FF" stroke-width="1" opacity="1"/><text x="1386" y="927" fill="#102A52" font-size="15" font-family="NanumSquareRound, NanumGothic, Inter, Arial, sans-serif" font-weight="900" text-anchor="middle" opacity="1">5. engine dispatch</text><rect x="1625" y="902" width="176" height="36" rx="18" ry="18" fill="#FFFFFF" stroke="#D7E6FF" stroke-width="1" opacity="1"/><text x="1713" y="927" fill="#102A52" font-size="15" font-family="NanumSquareRound, NanumGothic, Inter, Arial, sans-serif" font-weight="900" text-anchor="middle" opacity="1">6. model inference</text><rect x="96" y="970" width="1856" height="82" rx="18" ry="18" fill="#FFFFFF" stroke="#DDE7F3" stroke-width="1.5" opacity="1"/><text x="126" y="1018" fill="#0B1533" font-size="18" font-family="NanumSquareRound, NanumGothic, Inter, Arial, sans-serif" font-weight="900" text-anchor="start" opacity="1">Legend</text><line x1="260" y1="1012" x2="336" y2="1012" stroke="#0B57C7" stroke-width="4.5" stroke-linecap="round" opacity="1" marker-end="url(#arrow-blue)"/><text x="356" y="1018" fill="#59647A" font-size="16" font-family="NanumSquareRound, NanumGothic, Inter, Arial, sans-serif" font-weight="800" text-anchor="start" opacity="1">주요 요청 흐름</text><line x1="570" y1="1012" x2="646" y2="1012" stroke="#1A2A44" stroke-width="3.5" stroke-linecap="round" opacity="1" stroke-dasharray="4 9" marker-end="url(#arrow-navy)"/><text x="666" y="1018" fill="#59647A" font-size="16" font-family="NanumSquareRound, NanumGothic, Inter, Arial, sans-serif" font-weight="800" text-anchor="start" opacity="1">공통 데이터 접근</text><rect x="882" y="995" width="44" height="34" rx="10" ry="10" fill="#6FAF48" stroke="#3E7C2F" stroke-width="1.5" opacity="1"/><text x="946" y="1018" fill="#59647A" font-size="16" font-family="NanumSquareRound, NanumGothic, Inter, Arial, sans-serif" font-weight="800" text-anchor="start" opacity="1">큐 / 저장소</text><rect x="1194" y="995" width="50" height="34" rx="10" ry="10" fill="#F2F7FF" stroke="#A8C7FA" stroke-width="1.5" opacity="1"/><text x="1264" y="1018" fill="#59647A" font-size="16" font-family="NanumSquareRound, NanumGothic, Inter, Arial, sans-serif" font-weight="800" text-anchor="start" opacity="1">복제 가능한 Runtime 컴포넌트</text><rect x="1600" y="988" width="295" height="48" rx="24" ry="24" fill="#F2F7FF" stroke="#A8C7FA" stroke-width="1" opacity="1"/><text x="1748" y="1018" fill="#0B57C7" font-size="16" font-family="NanumSquareRound, NanumGothic, Inter, Arial, sans-serif" font-weight="900" text-anchor="middle" opacity="1">scale-out: stage별 replica 확장</text></svg>